<?xml version="1.0" encoding="iso-8859-1"?>
<!-- Uploaded to: SVG Repo, www.svgrepo.com, Generator: SVG Repo Mixer Tools -->
<svg height="800px" width="800px" version="1.1" id="Layer_1" xmlns="http://www.w3.org/2000/svg" xmlns:xlink="http://www.w3.org/1999/xlink" 
	 viewBox="0 0 508 508" xml:space="preserve">
<path style="fill:#FFD15C;" d="M457.2,310.5c-28.1,0-50.8-22.7-50.8-50.8c0,28.1-22.7,50.8-50.8,50.8l0,0
	c-28.1,0-50.8-22.7-50.8-50.8c0,28.1-22.7,50.8-50.8,50.8c-28.1,0-50.8-22.7-50.8-50.8c0,28.1-22.7,50.8-50.8,50.8
	s-50.8-22.7-50.8-50.8c0,28.1-22.7,50.8-50.8,50.8l0,0c-4.7,0-9.2-0.8-13.5-2V508h433.4V308.4C466.4,309.6,461.9,310.5,457.2,310.5z
	"/>
<path style="fill:#FFFFFF;" d="M395.9,290.5v123.8H112.1v-124c5.6,7.6,13.5,13.5,22.6,16.8c5.5,2.1,11.4,3.3,17.7,3.3
	c26.7,0,48.5-20.5,50.6-46.7c0.1-1.4,0.2-2.8,0.2-4.1c0,1.4,0.1,2.8,0.2,4.1c2.1,26.1,23.9,46.7,50.6,46.7s48.5-20.5,50.6-46.7
	c0.1-1.4,0.2-2.8,0.2-4.1c0,1.4,0.1,2.8,0.2,4.1c2.1,26.1,23.9,46.7,50.6,46.7c6.2,0,12.2-1.2,17.7-3.3c6.9-2.5,13.1-6.6,18.2-11.6
	C393.1,293.9,394.6,292.3,395.9,290.5z"/>
<path style="fill:#84DBFF;" d="M373.3,307.1v84.6H134.8v-84.6c5.5,2.1,11.4,3.3,17.7,3.3c26.7,0,48.5-20.5,50.6-46.7h0.4
	c2.1,26.1,23.9,46.7,50.6,46.7s48.5-20.5,50.6-46.7h0.4c2.1,26.1,23.9,46.7,50.6,46.7C361.9,310.4,367.8,309.2,373.3,307.1z"/>
<path style="fill:#F8B64C;" d="M449.5,0h-391C46.8,0,37.3,9.5,37.3,21.2v69.1h433.4V21.2C470.7,9.5,461.2,0,449.5,0z"/>
<path style="opacity:0.2;fill:#334A5E;enable-background:new    ;" d="M470.7,308.5v11.3c-4.3,1.3-8.8,1.9-13.5,1.9
	c-28,0-50.8-22.8-50.8-50.8c0,11.6-3.9,22.3-10.5,30.9c-5.7,7.5-13.5,13.3-22.5,16.6c-5.5,2.1-11.5,3.3-17.8,3.3
	c-28,0-50.8-22.8-50.8-50.8c0,28-22.6,50.8-50.7,50.8c-28.2,0-50.8-22.8-50.8-50.8c0,28-22.8,50.8-50.8,50.8
	c-6.2,0-12.2-1.2-17.7-3.3c-9.1-3.3-16.9-9.1-22.6-16.7c-6.6-8.6-10.5-19.3-10.5-30.8c0,28-22.8,50.8-50.8,50.8
	c-4.8,0-9.2-0.6-13.5-1.8v-11.4c4.3,1.3,8.9,1.9,13.5,1.9c14,0,26.7-5.7,35.9-14.9c9.2-9.1,14.9-21.8,14.9-35.9
	c0,11.5,3.8,22.2,10.5,30.7c5.6,7.6,13.5,13.5,22.6,16.8c5.5,2.1,11.4,3.3,17.7,3.3c26.7,0,48.5-20.5,50.6-46.7
	c0.1-1.4,0.2-2.8,0.2-4.1c0,1.4,0.1,2.8,0.2,4.1c2.1,26.1,23.9,46.7,50.6,46.7s48.5-20.5,50.6-46.7c0.1-1.4,0.2-2.8,0.2-4.1
	c0,1.4,0.1,2.8,0.2,4.1c2.1,26.1,23.9,46.7,50.6,46.7c6.2,0,12.2-1.2,17.7-3.3c6.9-2.5,13.1-6.6,18.2-11.6c1.6-1.6,3.1-3.2,4.3-5
	c6.7-8.5,10.6-19.3,10.6-30.9c0,28,22.8,50.8,50.8,50.8C461.9,310.4,466.4,309.8,470.7,308.5z"/>
<polygon style="fill:#FF7058;" points="101.6,203.9 0,203.9 37.3,90.3 124,90.3 "/>
<polygon style="fill:#F2F2F2;" points="203.2,203.9 101.6,203.9 124,90.3 210.7,90.3 "/>
<g>
	<polygon style="fill:#FF7058;" points="304.8,203.9 203.2,203.9 210.7,90.3 297.3,90.3 	"/>
	<polygon style="fill:#FF7058;" points="508,203.9 406.4,203.9 384,90.3 470.7,90.3 	"/>
</g>
<polygon style="fill:#F2F2F2;" points="406.4,203.9 304.8,203.9 297.3,90.3 384,90.3 "/>
<g>
	<path style="fill:#F1543F;" d="M0,259.7c0,28.1,22.7,50.8,50.8,50.8l0,0c28.1,0,50.8-22.7,50.8-50.8v-55.8H0V259.7z"/>
	<path style="fill:#F1543F;" d="M203.2,259.7c0,28.1,22.7,50.8,50.8,50.8s50.8-22.7,50.8-50.8v-55.8H203.2V259.7z"/>
	<path style="fill:#F1543F;" d="M406.4,203.9v55.8c0,28.1,22.7,50.8,50.8,50.8c28.1,0,50.8-22.7,50.8-50.8v-55.8L406.4,203.9
		L406.4,203.9z"/>
</g>
<g>
	<path style="fill:#CDD6E0;" d="M101.6,259.7c0,28.1,22.7,50.8,50.8,50.8s50.8-22.7,50.8-50.8v-55.8H101.6V259.7z"/>
	<path style="fill:#CDD6E0;" d="M304.8,203.9v55.8c0,28.1,22.7,50.8,50.8,50.8l0,0c28.1,0,50.8-22.7,50.8-50.8v-55.8L304.8,203.9
		L304.8,203.9z"/>
</g>
</svg>